<svg xmlns:dc="http://purl.org/dc/elements/1.1/" xmlns:cc="http://creativecommons.org/ns#" xmlns:rdf="http://www.w3.org/1999/02/22-rdf-syntax-ns#" xmlns:svg="http://www.w3.org/2000/svg" xmlns="http://www.w3.org/2000/svg" xmlns:xlink="http://www.w3.org/1999/xlink" id="svg331452" version="1.1" viewBox="421.35 358.75 410.51 50.49">
    <metadata id="metadata331458">
        <rdf:rdf>
            <cc:work rdf:about="">
                <dc:format>image/svg+xml</dc:format>
                <dc:type rdf:resource="http://purl.org/dc/dcmitype/StillImage"/>
            </cc:work>
        </rdf:rdf>
    </metadata>
    <defs id="defs331456"/>
    <linearGradient spreadMethod="pad" y2="30%" x2="-10%" y1="120%" x1="30%" id="3d_gradient2-logo-9754d5b6-c65c-4cbb-a461-0ac0d07f1c3d">
        <stop id="stop331433" stop-opacity="1" stop-color="#ffffff" offset="0%"/>
        <stop id="stop331435" stop-opacity="1" stop-color="#000000" offset="100%"/>
    </linearGradient>
    <linearGradient gradientTransform="rotate(-30)" spreadMethod="pad" y2="30%" x2="-10%" y1="120%" x1="30%" id="3d_gradient3-logo-9754d5b6-c65c-4cbb-a461-0ac0d07f1c3d">
        <stop id="stop331438" stop-opacity="1" stop-color="#ffffff" offset="0%"/>
        <stop id="stop331440" stop-opacity="1" stop-color="#cccccc" offset="50%"/>
        <stop id="stop331442" stop-opacity="1" stop-color="#000000" offset="100%"/>
    </linearGradient>
    <g id="logo-group">
        <image xlink:href="" id="container" x="272" y="144" width="480" height="480" transform="translate(0 0)" style="display: none;"/>
        <g id="logo-center" transform="translate(34.11250000000001 0)">
            <image xlink:href="" id="icon_container" x="0" y="0" style="display: none;"/>
            <g id="slogan" style="font-style:normal;font-weight:400;font-size:32px;line-height:1;font-family:Farsan;font-variant-ligatures:none;text-align:center;text-anchor:middle" transform="translate(0 0)"/>
            <g id="title" style="font-style:normal;font-weight:normal;font-size:72px;line-height:1;font-family:'Archivo Black';font-variant-ligatures:none;text-align:center;text-anchor:middle" transform="translate(0 0)">
                <path id="path331461" style="font-style:normal;font-weight:normal;font-size:72px;line-height:1;font-family:'Archivo Black';font-variant-ligatures:none;text-align:center;text-anchor:middle" d="m 239.18862,0 v -49.536 h 15.912 V 0 Z" stroke-width="0" stroke-linejoin="miter" stroke-miterlimit="2" fill="#00314c" stroke="#00314c" transform="translate(0 295.705) translate(387.23637500000007 65.048) scale(0.75) translate(-239.18862 49.536)"/>
                <path id="path331463" style="font-style:normal;font-weight:normal;font-size:72px;line-height:1;font-family:'Archivo Black';font-variant-ligatures:none;text-align:center;text-anchor:middle" d="m 308.213,-45.144 q 0,4.392 -2.232,6.768 -2.16,2.376 -6.552,3.528 2.088,1.584 3.24,3.744 1.224,2.088 1.224,4.464 0,6.048 -4.608,9.144 -4.536,3.096 -11.376,3.096 h -5.472 q -4.536,0 -4.536,2.088 0,1.008 1.008,1.656 1.008,0.576 3.528,0.576 h 12.96 q 6.336,0 9.576,3.312 3.24,3.312 3.24,8.856 0,4.104 -2.16,7.056 -2.16,2.952 -5.832,4.464 -3.672,1.512 -7.992,1.512 h -21.168 q -2.592,0 -4.824,-1.224 -2.16,-1.224 -3.456,-3.384 -1.296,-2.088 -1.296,-4.68 0,-2.808 1.728,-5.112 1.728,-2.232 4.32,-3.384 -1.728,-1.224 -2.736,-2.952 -1.008,-1.728 -1.008,-3.744 0,-2.808 2.088,-5.04 2.088,-2.304 5.184,-3.096 -2.808,-1.8 -4.464,-4.104 -1.656,-2.376 -1.656,-4.968 0,-6.624 5.328,-9.432 5.4,-2.88 14.256,-2.88 3.888,0 6.264,0.432 3.528,-2.232 4.536,-4.032 1.08,-1.872 1.08,-2.664 z m -23.832,13.752 q -2.376,0 -3.888,1.224 -1.512,1.224 -1.512,3.528 0,2.376 1.368,3.6 1.44,1.152 4.032,1.152 2.592,0 4.032,-1.152 1.512,-1.224 1.512,-3.6 0,-2.376 -1.512,-3.528 -1.44,-1.224 -4.032,-1.224 z M 278.837,0 q -1.656,0 -2.736,0.864 -1.008,0.936 -1.008,2.592 0,1.656 1.08,2.664 1.08,1.008 2.664,1.008 h 11.232 q 1.584,0 2.664,-1.008 1.152,-0.936 1.152,-2.592 0,-1.656 -1.08,-2.592 Q 291.725,0 290.069,0 Z" stroke-width="0" stroke-linejoin="miter" stroke-miterlimit="2" fill="#08354e" stroke="#08354e" transform="translate(0 295.705) translate(403.9586600000001 68.34200000000001) scale(0.75) translate(-261.485 45.144)"/>
                <path id="path331465" style="font-style:normal;font-weight:normal;font-size:72px;line-height:1;font-family:'Archivo Black';font-variant-ligatures:none;text-align:center;text-anchor:middle" d="m 333.19475,-38.88 q 10.008,0 15.696,5.112 5.76,5.04 5.76,14.76 0,9.72 -5.76,14.832 -5.688,5.04 -15.696,5.04 -10.008,0 -15.696,-5.04 -5.688,-5.04 -5.688,-14.832 0,-9.792 5.688,-14.832 5.688,-5.04 15.696,-5.04 z m 0,9.72 q -7.056,0 -7.056,8.136 v 4.104 q 0,8.064 7.056,8.064 7.128,0 7.128,-8.064 v -4.104 q 0,-8.136 -7.128,-8.136 z" stroke-width="0" stroke-linejoin="miter" stroke-miterlimit="2" fill="#10394f" stroke="#10394f" transform="translate(0 295.705) translate(441.7029725000001 73.03999999999999) scale(0.75) translate(-311.81075 38.88)"/>
                <path id="path331467" style="font-style:normal;font-weight:normal;font-size:72px;line-height:1;font-family:'Archivo Black';font-variant-ligatures:none;text-align:center;text-anchor:middle" d="m 384.7445,-38.952 q 1.656,0 2.952,0.432 1.296,0.36 1.296,0.432 v 12.024 h -4.608 q -4.464,0 -6.48,2.304 -1.944,2.304 -1.944,6.84 V 0 h -14.328 v -38.016 h 11.736 l 0.936,5.76 q 1.296,-3.312 4.104,-4.968 2.808,-1.728 6.336,-1.728 z" stroke-width="0" stroke-linejoin="miter" stroke-miterlimit="2" fill="#183c51" stroke="#183c51" transform="translate(0 295.705) translate(479.0692850000001 72.986) scale(0.75) translate(-361.6325 38.952)"/>
                <path id="path331469" style="font-style:normal;font-weight:normal;font-size:72px;line-height:1;font-family:'Archivo Black';font-variant-ligatures:none;text-align:center;text-anchor:middle" d="m 451.58525,-49.536 q 3.744,0 6.84,1.584 3.168,1.512 4.968,4.32 1.872,2.808 1.872,6.264 0,9.144 -8.28,11.52 v 0.288 q 9.432,2.16 9.432,12.384 0,3.888 -1.944,6.912 -1.872,2.952 -5.184,4.608 -3.312,1.656 -7.272,1.656 h -33.408 v -49.536 z m -17.064,19.296 h 10.944 q 1.584,0 2.592,-1.08 1.08,-1.152 1.08,-2.808 v -0.72 q 0,-1.584 -1.08,-2.664 -1.08,-1.152 -2.592,-1.152 h -10.944 z m 0,18.72 h 12.096 q 1.584,0 2.592,-1.08 1.08,-1.152 1.08,-2.808 v -0.72 q 0,-1.656 -1.08,-2.736 -1.008,-1.152 -2.592,-1.152 h -12.096 z" stroke-width="0" stroke-linejoin="miter" stroke-miterlimit="2" fill="#1f4052" stroke="#1f4052" transform="translate(0 295.705) translate(521.8018475 65.048) scale(0.75) translate(-418.60925 49.536)"/>
                <path id="path331471" style="font-style:normal;font-weight:normal;font-size:72px;line-height:1;font-family:'Archivo Black';font-variant-ligatures:none;text-align:center;text-anchor:middle" d="m 493.226,-38.88 q 10.008,0 15.696,5.112 5.76,5.04 5.76,14.76 0,9.72 -5.76,14.832 -5.688,5.04 -15.696,5.04 -10.008,0 -15.696,-5.04 -5.688,-5.04 -5.688,-14.832 0,-9.792 5.688,-14.832 5.688,-5.04 15.696,-5.04 z m 0,9.72 q -7.056,0 -7.056,8.136 v 4.104 q 0,8.064 7.056,8.064 7.128,0 7.128,-8.064 v -4.104 q 0,-8.136 -7.128,-8.136 z" stroke-width="0" stroke-linejoin="miter" stroke-miterlimit="2" fill="#274454" stroke="#274454" transform="translate(0 295.705) translate(561.72641 73.03999999999999) scale(0.75) translate(-471.842 38.88)"/>
                <path id="path331473" style="font-style:normal;font-weight:normal;font-size:72px;line-height:1;font-family:'Archivo Black';font-variant-ligatures:none;text-align:center;text-anchor:middle" d="m 544.77575,-38.952 q 1.656,0 2.952,0.432 1.296,0.36 1.296,0.432 v 12.024 h -4.608 q -4.464,0 -6.48,2.304 -1.944,2.304 -1.944,6.84 V 0 h -14.328 v -38.016 h 11.736 l 0.936,5.76 q 1.296,-3.312 4.104,-4.968 2.808,-1.728 6.336,-1.728 z" stroke-width="0" stroke-linejoin="miter" stroke-miterlimit="2" fill="#2f4855" stroke="#2f4855" transform="translate(0 295.705) translate(599.0927225 72.986) scale(0.75) translate(-521.66375 38.952)"/>
                <path id="path331475" style="font-style:normal;font-weight:normal;font-size:72px;line-height:1;font-family:'Archivo Black';font-variant-ligatures:none;text-align:center;text-anchor:middle" d="m 574.36662,-38.88 q 10.00801,0 15.69601,5.112 5.76,5.04 5.76,14.76 0,9.72 -5.76,14.832 -5.688,5.04 -15.69601,5.04 -10.008,0 -15.696,-5.04 -5.688,-5.04 -5.688,-14.832 0,-9.792 5.688,-14.832 5.688,-5.04 15.696,-5.04 z m 0,9.72 q -7.056,0 -7.056,8.136 v 4.104 q 0,8.064 7.056,8.064 7.12801,0 7.12801,-8.064 v -4.104 q 0,-8.136 -7.12801,-8.136 z" stroke-width="0" stroke-linejoin="miter" stroke-miterlimit="2" fill="#374b57" stroke="#374b57" transform="translate(0 295.705) translate(622.581875 73.03999999999999) scale(0.75) translate(-552.98262 38.88)"/>
                <path id="path331477" style="font-style:normal;font-weight:normal;font-size:72px;line-height:1;font-family:'Archivo Black';font-variant-ligatures:none;text-align:center;text-anchor:middle" d="m 630.45237,0 -1.22399,-5.4 q -4.17601,6.264 -12.096,6.264 -7.70401,0 -11.88,-5.04 -4.17601,-5.04 -4.17601,-14.904 0,-9.792 4.17601,-14.76 4.17599,-5.04 11.88,-5.04 6.552,0 10.65599,4.392 V -52.2 h 14.328 V 0 Z m -8.856,-28.296 q -6.192,0 -6.192,7.416 v 3.816 q 0,7.344 6.192,7.344 3.168,0 4.75201,-2.232 1.58399,-2.232 1.58399,-5.832 v -2.376 q 0,-3.6 -1.58399,-5.832 -1.58401,-2.304 -4.75201,-2.304 z" stroke-width="0" stroke-linejoin="miter" stroke-miterlimit="2" fill="#3f4f58" stroke="#3f4f58" transform="translate(0 295.705) translate(658.6521875 63.05) scale(0.75) translate(-601.07637 52.2)"/>
                <path id="path331479" style="font-style:normal;font-weight:normal;font-size:72px;line-height:1;font-family:'Archivo Black';font-variant-ligatures:none;text-align:center;text-anchor:middle" d="m 678.47412,0 -0.93599,-5.76 q -2.23201,3.096 -5.904,4.896 -3.6,1.728 -7.63201,1.728 -6.624,0 -9.93599,-3.672 -3.312,-3.672 -3.312,-10.584 v -24.624 h 14.328 v 22.896 q 0,2.448 1.22399,3.96 1.296,1.44 3.6,1.44 2.664,0 4.32001,-1.728 1.65599,-1.728 1.65599,-4.248 v -22.32 h 14.328 V 0 Z" stroke-width="0" stroke-linejoin="miter" stroke-miterlimit="2" fill="#47535a" stroke="#47535a" transform="translate(0 295.705) translate(695.9105075 73.688) scale(0.75) translate(-650.75413 38.016)"/>
                <path id="path331481" style="font-style:normal;font-weight:normal;font-size:72px;line-height:1;font-family:'Archivo Black';font-variant-ligatures:none;text-align:center;text-anchor:middle" d="m 699.49587,0 v -52.2 h 14.32801 V 0 Z" stroke-width="0" stroke-linejoin="miter" stroke-miterlimit="2" fill="#4e575b" stroke="#4e575b" transform="translate(0 295.705) translate(732.4668124999998 63.05) scale(0.75) translate(-699.49587 52.2)"/>
                <path id="path331483" style="font-style:normal;font-weight:normal;font-size:72px;line-height:1;font-family:'Archivo Black';font-variant-ligatures:none;text-align:center;text-anchor:middle" d="m 723.54275,-42.48 v -9.72 h 14.328 v 9.72 z m 0,42.48 v -38.016 h 14.328 V 0 Z" stroke-width="0" stroke-linejoin="miter" stroke-miterlimit="2" fill="#565a5d" stroke="#565a5d" transform="translate(0 295.705) translate(750.5019724999999 63.05) scale(0.75) translate(-723.54275 52.2)"/>
                <path id="path331485" style="font-style:normal;font-weight:normal;font-size:72px;line-height:1;font-family:'Archivo Black';font-variant-ligatures:none;text-align:center;text-anchor:middle" d="m 773.29363,-38.88 q 6.624,0 9.936,3.672 3.31199,3.672 3.31199,10.584 V 0 h -14.328 v -22.896 q 0,-2.448 -1.29599,-3.888 -1.22401,-1.512 -3.528,-1.512 -2.664,0 -4.32001,1.728 -1.65599,1.728 -1.65599,4.248 V 0 h -14.328 v -38.016 h 11.736 l 0.93599,5.76 q 2.23201,-3.024 5.832,-4.824 3.672,-1.8 7.70401,-1.8 z" stroke-width="0" stroke-linejoin="miter" stroke-miterlimit="2" fill="#5e5e5e" stroke="#5e5e5e" transform="translate(0 295.705) translate(768.1591324999999 73.03999999999999) scale(0.75) translate(-747.08563 38.88)"/>
            </g>
        </g>
    </g>
</svg>